<svg xmlns="http://www.w3.org/2000/svg"
  xmlns:xlink="http://www.w3.org/1999/xlink" width="537px" height="250px">
  <path fill-rule="evenodd" fill="#fef9f3" d="M536.773,236.131 L535.023,247.752 L477.057,247.752 L491.758,146.521 L504.640,146.521 L491.688,236.131 L536.773,236.131 ZM439.613,220.029 L400.689,220.029 L387.177,247.752 L374.366,247.752 L423.651,146.521 L437.793,146.521 L457.745,247.752 L444.933,247.752 L439.613,220.029 ZM428.972,159.333 L405.589,208.128 L438.003,208.128 L428.972,159.333 ZM357.432,158.422 L344.550,247.752 L331.949,247.752 L344.761,158.422 L314.027,158.422 L315.777,146.521 L388.305,146.521 L386.695,158.422 L357.432,158.422 ZM280.365,101.752 L259.643,67.588 L239.341,101.752 L213.858,101.752 L247.252,50.506 L214.838,0.521 L244.311,0.521 L262.303,30.624 L280.085,0.521 L305.218,0.521 L274.485,47.216 L310.118,101.752 L280.365,101.752 ZM133.782,36.785 L133.782,101.752 L109.909,101.752 L109.909,0.521 L133.782,0.521 L176.626,62.268 L176.626,0.521 L200.429,0.521 L200.429,101.752 L178.936,101.752 L133.782,36.785 ZM65.320,0.521 L89.192,0.521 L89.192,101.752 L65.320,101.752 L65.320,0.521 ZM67.218,177.744 C66.657,165.843 60.217,156.392 46.705,156.392 C26.893,156.392 16.882,174.594 14.222,200.847 C11.562,226.120 19.052,237.881 35.714,237.881 C49.086,237.881 58.257,227.730 62.037,215.898 L75.548,215.898 C71.068,233.190 57.627,249.152 34.384,249.152 C9.672,249.152 -2.510,231.510 0.431,200.427 C3.301,167.593 19.893,145.121 48.736,145.121 C68.898,145.121 80.939,159.403 80.659,177.744 L67.218,177.744 ZM18.702,103.152 C12.611,103.152 4.490,102.172 0.780,101.332 L0.990,79.699 C3.650,80.190 7.151,80.960 10.721,80.960 C20.242,80.960 22.762,76.269 22.762,65.418 L22.762,0.521 L46.635,0.521 L46.635,71.649 C46.635,92.581 41.384,103.152 18.702,103.152 ZM146.456,146.521 L166.408,247.752 L153.597,247.752 L148.276,220.029 L109.352,220.029 L95.840,247.752 L83.029,247.752 L132.314,146.521 L146.456,146.521 ZM146.666,208.128 L137.635,159.333 L114.252,208.128 L146.666,208.128 ZM232.905,146.521 C253.417,146.521 266.858,157.652 263.918,178.515 C260.908,198.747 245.506,210.298 225.344,210.298 L204.132,210.298 L198.741,247.752 L185.790,247.752 L200.421,146.521 L232.905,146.521 ZM226.744,199.377 C239.625,199.377 249.847,191.046 251.737,177.744 C253.557,164.303 245.366,157.302 232.135,157.302 L211.693,157.302 L205.672,199.377 L226.744,199.377 ZM298.912,146.521 L284.350,247.752 L271.679,247.752 L286.241,146.521 L298.912,146.521 Z"/>
</svg>
